<svg width="264" height="41" viewBox="0 0 264 41" fill="none" xmlns="http://www.w3.org/2000/svg">
<path d="M257.916 37.216C257.04 37.216 256.17 37.102 255.306 36.874C254.454 36.634 253.722 36.298 253.11 35.866L254.262 33.634C254.742 33.982 255.294 34.258 255.918 34.462C256.554 34.666 257.196 34.768 257.844 34.768C258.576 34.768 259.152 34.624 259.572 34.336C259.992 34.048 260.202 33.646 260.202 33.13C260.202 32.806 260.118 32.518 259.95 32.266C259.782 32.014 259.482 31.822 259.05 31.69C258.63 31.558 258.036 31.492 257.268 31.492H254.046L254.694 24.4H262.38V26.74H255.738L257.25 25.408L256.8 30.466L255.288 29.134H257.952C259.2 29.134 260.202 29.308 260.958 29.656C261.726 29.992 262.284 30.454 262.632 31.042C262.98 31.63 263.154 32.296 263.154 33.04C263.154 33.784 262.968 34.474 262.596 35.11C262.224 35.734 261.648 36.244 260.868 36.64C260.1 37.024 259.116 37.216 257.916 37.216Z" fill="url(#paint0_linear_3467_1284)"/>
<path d="M242.546 37V35.11L247.406 30.52C247.79 30.172 248.072 29.86 248.252 29.584C248.432 29.308 248.552 29.056 248.612 28.828C248.684 28.6 248.72 28.39 248.72 28.198C248.72 27.694 248.546 27.31 248.198 27.046C247.862 26.77 247.364 26.632 246.704 26.632C246.176 26.632 245.684 26.734 245.228 26.938C244.784 27.142 244.406 27.46 244.094 27.892L241.97 26.524C242.45 25.804 243.122 25.234 243.986 24.814C244.85 24.394 245.846 24.184 246.974 24.184C247.91 24.184 248.726 24.34 249.422 24.652C250.13 24.952 250.676 25.378 251.06 25.93C251.456 26.482 251.654 27.142 251.654 27.91C251.654 28.318 251.6 28.726 251.492 29.134C251.396 29.53 251.192 29.95 250.88 30.394C250.58 30.838 250.136 31.336 249.548 31.888L245.516 35.686L244.958 34.624H252.068V37H242.546Z" fill="url(#paint1_linear_3467_1284)"/>
<path d="M235.548 37.216C234.516 37.216 233.592 36.964 232.776 36.46C231.96 35.944 231.318 35.2 230.85 34.228C230.382 33.256 230.148 32.08 230.148 30.7C230.148 29.32 230.382 28.144 230.85 27.172C231.318 26.2 231.96 25.462 232.776 24.958C233.592 24.442 234.516 24.184 235.548 24.184C236.592 24.184 237.516 24.442 238.32 24.958C239.136 25.462 239.778 26.2 240.246 27.172C240.714 28.144 240.948 29.32 240.948 30.7C240.948 32.08 240.714 33.256 240.246 34.228C239.778 35.2 239.136 35.944 238.32 36.46C237.516 36.964 236.592 37.216 235.548 37.216ZM235.548 34.75C236.04 34.75 236.466 34.612 236.826 34.336C237.198 34.06 237.486 33.622 237.69 33.022C237.906 32.422 238.014 31.648 238.014 30.7C238.014 29.752 237.906 28.978 237.69 28.378C237.486 27.778 237.198 27.34 236.826 27.064C236.466 26.788 236.04 26.65 235.548 26.65C235.068 26.65 234.642 26.788 234.27 27.064C233.91 27.34 233.622 27.778 233.406 28.378C233.202 28.978 233.1 29.752 233.1 30.7C233.1 31.648 233.202 32.422 233.406 33.022C233.622 33.622 233.91 34.06 234.27 34.336C234.642 34.612 235.068 34.75 235.548 34.75Z" fill="url(#paint2_linear_3467_1284)"/>
<path d="M219.063 37V35.11L223.923 30.52C224.307 30.172 224.589 29.86 224.769 29.584C224.949 29.308 225.069 29.056 225.129 28.828C225.201 28.6 225.237 28.39 225.237 28.198C225.237 27.694 225.063 27.31 224.715 27.046C224.379 26.77 223.881 26.632 223.221 26.632C222.693 26.632 222.201 26.734 221.745 26.938C221.301 27.142 220.923 27.46 220.611 27.892L218.487 26.524C218.967 25.804 219.639 25.234 220.503 24.814C221.367 24.394 222.363 24.184 223.491 24.184C224.427 24.184 225.243 24.34 225.939 24.652C226.647 24.952 227.193 25.378 227.577 25.93C227.973 26.482 228.171 27.142 228.171 27.91C228.171 28.318 228.117 28.726 228.009 29.134C227.913 29.53 227.709 29.95 227.397 30.394C227.097 30.838 226.653 31.336 226.065 31.888L222.033 35.686L221.475 34.624H228.585V37H219.063Z" fill="url(#paint3_linear_3467_1284)"/>
<path d="M210.713 37.216C209.789 37.216 208.967 37.066 208.247 36.766C207.527 36.466 206.957 36.058 206.537 35.542C206.117 35.026 205.907 34.432 205.907 33.76C205.907 33.136 206.045 32.578 206.321 32.086C206.597 31.582 207.035 31.114 207.635 30.682C208.235 30.238 208.997 29.806 209.921 29.386C210.593 29.074 211.121 28.798 211.505 28.558C211.889 28.318 212.159 28.09 212.315 27.874C212.471 27.646 212.549 27.418 212.549 27.19C212.549 26.878 212.441 26.626 212.225 26.434C212.021 26.242 211.715 26.146 211.307 26.146C210.875 26.146 210.539 26.254 210.299 26.47C210.059 26.686 209.939 26.962 209.939 27.298C209.939 27.478 209.975 27.658 210.047 27.838C210.119 28.006 210.257 28.204 210.461 28.432C210.665 28.648 210.953 28.93 211.325 29.278L217.967 35.434L216.437 37.216L209.111 30.412C208.691 30.028 208.355 29.668 208.103 29.332C207.851 28.996 207.665 28.666 207.545 28.342C207.437 28.018 207.383 27.682 207.383 27.334C207.383 26.722 207.545 26.182 207.869 25.714C208.193 25.246 208.649 24.886 209.237 24.634C209.825 24.37 210.515 24.238 211.307 24.238C212.039 24.238 212.669 24.358 213.197 24.598C213.737 24.826 214.157 25.156 214.457 25.588C214.769 26.02 214.925 26.536 214.925 27.136C214.925 27.664 214.793 28.15 214.529 28.594C214.265 29.026 213.851 29.434 213.287 29.818C212.735 30.202 212.009 30.592 211.109 30.988C210.497 31.264 210.011 31.534 209.651 31.798C209.303 32.05 209.051 32.308 208.895 32.572C208.739 32.836 208.661 33.13 208.661 33.454C208.661 33.754 208.751 34.024 208.931 34.264C209.123 34.504 209.387 34.69 209.723 34.822C210.059 34.954 210.455 35.02 210.911 35.02C211.643 35.02 212.315 34.852 212.927 34.516C213.539 34.168 214.055 33.658 214.475 32.986C214.907 32.302 215.213 31.474 215.393 30.502L217.643 31.204C217.391 32.428 216.941 33.49 216.293 34.39C215.645 35.29 214.847 35.986 213.899 36.478C212.951 36.97 211.889 37.216 210.713 37.216Z" fill="url(#paint4_linear_3467_1284)"/>
<path d="M192.695 34.354V32.392L198.635 24.4H201.695L195.881 32.392L194.459 31.978H204.377V34.354H192.695ZM199.481 37V34.354L199.571 31.978V29.62H202.325V37H199.481Z" fill="url(#paint5_linear_3467_1284)"/>
<path d="M181.948 37V35.11L186.808 30.52C187.192 30.172 187.474 29.86 187.654 29.584C187.834 29.308 187.954 29.056 188.014 28.828C188.086 28.6 188.122 28.39 188.122 28.198C188.122 27.694 187.948 27.31 187.6 27.046C187.264 26.77 186.766 26.632 186.106 26.632C185.578 26.632 185.086 26.734 184.63 26.938C184.186 27.142 183.808 27.46 183.496 27.892L181.372 26.524C181.852 25.804 182.524 25.234 183.388 24.814C184.252 24.394 185.248 24.184 186.376 24.184C187.312 24.184 188.128 24.34 188.824 24.652C189.532 24.952 190.078 25.378 190.462 25.93C190.858 26.482 191.056 27.142 191.056 27.91C191.056 28.318 191.002 28.726 190.894 29.134C190.798 29.53 190.594 29.95 190.282 30.394C189.982 30.838 189.538 31.336 188.95 31.888L184.918 35.686L184.36 34.624H191.47V37H181.948Z" fill="url(#paint6_linear_3467_1284)"/>
<path d="M174.949 37.216C173.917 37.216 172.993 36.964 172.177 36.46C171.361 35.944 170.719 35.2 170.251 34.228C169.783 33.256 169.549 32.08 169.549 30.7C169.549 29.32 169.783 28.144 170.251 27.172C170.719 26.2 171.361 25.462 172.177 24.958C172.993 24.442 173.917 24.184 174.949 24.184C175.993 24.184 176.917 24.442 177.721 24.958C178.537 25.462 179.179 26.2 179.647 27.172C180.115 28.144 180.349 29.32 180.349 30.7C180.349 32.08 180.115 33.256 179.647 34.228C179.179 35.2 178.537 35.944 177.721 36.46C176.917 36.964 175.993 37.216 174.949 37.216ZM174.949 34.75C175.441 34.75 175.867 34.612 176.227 34.336C176.599 34.06 176.887 33.622 177.091 33.022C177.307 32.422 177.415 31.648 177.415 30.7C177.415 29.752 177.307 28.978 177.091 28.378C176.887 27.778 176.599 27.34 176.227 27.064C175.867 26.788 175.441 26.65 174.949 26.65C174.469 26.65 174.043 26.788 173.671 27.064C173.311 27.34 173.023 27.778 172.807 28.378C172.603 28.978 172.501 29.752 172.501 30.7C172.501 31.648 172.603 32.422 172.807 33.022C173.023 33.622 173.311 34.06 173.671 34.336C174.043 34.612 174.469 34.75 174.949 34.75Z" fill="url(#paint7_linear_3467_1284)"/>
<path d="M158.464 37V35.11L163.324 30.52C163.708 30.172 163.99 29.86 164.17 29.584C164.35 29.308 164.47 29.056 164.53 28.828C164.602 28.6 164.638 28.39 164.638 28.198C164.638 27.694 164.464 27.31 164.116 27.046C163.78 26.77 163.282 26.632 162.622 26.632C162.094 26.632 161.602 26.734 161.146 26.938C160.702 27.142 160.324 27.46 160.012 27.892L157.888 26.524C158.368 25.804 159.04 25.234 159.904 24.814C160.768 24.394 161.764 24.184 162.892 24.184C163.828 24.184 164.644 24.34 165.34 24.652C166.048 24.952 166.594 25.378 166.978 25.93C167.374 26.482 167.572 27.142 167.572 27.91C167.572 28.318 167.518 28.726 167.41 29.134C167.314 29.53 167.11 29.95 166.798 30.394C166.498 30.838 166.054 31.336 165.466 31.888L161.434 35.686L160.876 34.624H167.986V37H158.464Z" fill="url(#paint8_linear_3467_1284)"/>
<path d="M143.814 40.636C143.311 40.636 142.812 40.558 142.32 40.402C141.828 40.246 141.426 40.03 141.115 39.754L142.141 37.756C142.357 37.948 142.602 38.098 142.878 38.206C143.166 38.314 143.449 38.368 143.725 38.368C144.12 38.368 144.432 38.272 144.66 38.08C144.9 37.9 145.117 37.594 145.309 37.162L145.812 35.974L146.029 35.668L149.503 27.316H152.202L147.828 37.594C147.516 38.374 147.157 38.986 146.749 39.43C146.353 39.874 145.909 40.186 145.417 40.366C144.937 40.546 144.402 40.636 143.814 40.636ZM145.471 37.378L141.15 27.316H144.048L147.396 35.416L145.471 37.378Z" fill="url(#paint9_linear_3467_1284)"/>
<path d="M138.544 37.144C137.404 37.144 136.516 36.856 135.88 36.28C135.244 35.692 134.926 34.822 134.926 33.67V25.174H137.734V33.634C137.734 34.042 137.842 34.36 138.058 34.588C138.274 34.804 138.568 34.912 138.94 34.912C139.384 34.912 139.762 34.792 140.074 34.552L140.83 36.532C140.542 36.736 140.194 36.892 139.786 37C139.39 37.096 138.976 37.144 138.544 37.144ZM133.432 29.692V27.532H140.146V29.692H133.432Z" fill="url(#paint10_linear_3467_1284)"/>
<path d="M128.81 37V27.316H131.618V37H128.81ZM130.214 25.966C129.698 25.966 129.278 25.816 128.954 25.516C128.63 25.216 128.468 24.844 128.468 24.4C128.468 23.956 128.63 23.584 128.954 23.284C129.278 22.984 129.698 22.834 130.214 22.834C130.73 22.834 131.15 22.978 131.474 23.266C131.798 23.542 131.96 23.902 131.96 24.346C131.96 24.814 131.798 25.204 131.474 25.516C131.162 25.816 130.742 25.966 130.214 25.966Z" fill="url(#paint11_linear_3467_1284)"/>
<path d="M122.145 37.144C121.317 37.144 120.519 37.048 119.751 36.856C118.995 36.652 118.395 36.4 117.951 36.1L118.887 34.084C119.331 34.36 119.853 34.588 120.453 34.768C121.065 34.936 121.665 35.02 122.253 35.02C122.901 35.02 123.357 34.942 123.621 34.786C123.897 34.63 124.035 34.414 124.035 34.138C124.035 33.91 123.927 33.742 123.711 33.634C123.507 33.514 123.231 33.424 122.883 33.364C122.535 33.304 122.151 33.244 121.731 33.184C121.323 33.124 120.909 33.046 120.489 32.95C120.069 32.842 119.685 32.686 119.337 32.482C118.989 32.278 118.707 32.002 118.491 31.654C118.287 31.306 118.185 30.856 118.185 30.304C118.185 29.692 118.359 29.152 118.707 28.684C119.067 28.216 119.583 27.85 120.255 27.586C120.927 27.31 121.731 27.172 122.667 27.172C123.327 27.172 123.999 27.244 124.683 27.388C125.367 27.532 125.937 27.742 126.393 28.018L125.457 30.016C124.989 29.74 124.515 29.554 124.035 29.458C123.567 29.35 123.111 29.296 122.667 29.296C122.043 29.296 121.587 29.38 121.299 29.548C121.011 29.716 120.867 29.932 120.867 30.196C120.867 30.436 120.969 30.616 121.173 30.736C121.389 30.856 121.671 30.952 122.019 31.024C122.367 31.096 122.745 31.162 123.153 31.222C123.573 31.27 123.993 31.348 124.413 31.456C124.833 31.564 125.211 31.72 125.547 31.924C125.895 32.116 126.177 32.386 126.393 32.734C126.609 33.07 126.717 33.514 126.717 34.066C126.717 34.666 126.537 35.2 126.177 35.668C125.817 36.124 125.295 36.484 124.611 36.748C123.939 37.012 123.117 37.144 122.145 37.144Z" fill="url(#paint12_linear_3467_1284)"/>
<path d="M110.776 37V27.316H113.458V30.052L113.079 29.26C113.368 28.576 113.829 28.06 114.465 27.712C115.102 27.352 115.875 27.172 116.787 27.172V29.764C116.667 29.752 116.56 29.746 116.464 29.746C116.368 29.734 116.266 29.728 116.158 29.728C115.39 29.728 114.766 29.95 114.285 30.394C113.817 30.826 113.584 31.504 113.584 32.428V37H110.776Z" fill="url(#paint13_linear_3467_1284)"/>
<path d="M103.866 37.144C102.762 37.144 101.79 36.928 100.95 36.496C100.122 36.064 99.48 35.476 99.024 34.732C98.568 33.976 98.34 33.118 98.34 32.158C98.34 31.186 98.562 30.328 99.006 29.584C99.462 28.828 100.08 28.24 100.86 27.82C101.64 27.388 102.522 27.172 103.506 27.172C104.454 27.172 105.306 27.376 106.062 27.784C106.83 28.18 107.436 28.756 107.88 29.512C108.324 30.256 108.546 31.15 108.546 32.194C108.546 32.302 108.54 32.428 108.528 32.572C108.516 32.704 108.504 32.83 108.492 32.95H100.626V31.312H107.016L105.936 31.798C105.936 31.294 105.834 30.856 105.63 30.484C105.426 30.112 105.144 29.824 104.784 29.62C104.424 29.404 104.004 29.296 103.524 29.296C103.044 29.296 102.618 29.404 102.246 29.62C101.886 29.824 101.604 30.118 101.4 30.502C101.196 30.874 101.094 31.318 101.094 31.834V32.266C101.094 32.794 101.208 33.262 101.436 33.67C101.676 34.066 102.006 34.372 102.426 34.588C102.858 34.792 103.362 34.894 103.938 34.894C104.454 34.894 104.904 34.816 105.288 34.66C105.684 34.504 106.044 34.27 106.368 33.958L107.862 35.578C107.418 36.082 106.86 36.472 106.188 36.748C105.516 37.012 104.742 37.144 103.866 37.144Z" fill="url(#paint14_linear_3467_1284)"/>
<path d="M90.8339 37L86.7659 27.316H89.6639L93.0479 35.65H91.6079L95.1179 27.316H97.8179L93.7319 37H90.8339Z" fill="url(#paint15_linear_3467_1284)"/>
<path d="M82.4318 37V27.316H85.2398V37H82.4318ZM83.8358 25.966C83.3198 25.966 82.8998 25.816 82.5758 25.516C82.2518 25.216 82.0898 24.844 82.0898 24.4C82.0898 23.956 82.2518 23.584 82.5758 23.284C82.8998 22.984 83.3198 22.834 83.8358 22.834C84.3518 22.834 84.7718 22.978 85.0958 23.266C85.4198 23.542 85.5818 23.902 85.5818 24.346C85.5818 24.814 85.4198 25.204 85.0958 25.516C84.7838 25.816 84.3638 25.966 83.8358 25.966Z" fill="url(#paint16_linear_3467_1284)"/>
<path d="M75.5125 27.172C76.2805 27.172 76.9645 27.328 77.5645 27.64C78.1765 27.94 78.6565 28.408 79.0045 29.044C79.3525 29.668 79.5265 30.472 79.5265 31.456V37H76.7185V31.888C76.7185 31.108 76.5445 30.532 76.1965 30.16C75.8605 29.788 75.3805 29.602 74.7565 29.602C74.3125 29.602 73.9105 29.698 73.5505 29.89C73.2025 30.07 72.9265 30.352 72.7225 30.736C72.5305 31.12 72.4345 31.612 72.4345 32.212V37H69.6265V27.316H72.3085V29.998L71.8045 29.188C72.1525 28.54 72.6505 28.042 73.2985 27.694C73.9465 27.346 74.6845 27.172 75.5125 27.172Z" fill="url(#paint17_linear_3467_1284)"/>
<path d="M60.877 37.216C59.089 37.216 57.691 36.718 56.683 35.722C55.675 34.726 55.171 33.304 55.171 31.456V24.4H58.087V31.348C58.087 32.548 58.333 33.412 58.825 33.94C59.317 34.468 60.007 34.732 60.895 34.732C61.783 34.732 62.473 34.468 62.965 33.94C63.457 33.412 63.703 32.548 63.703 31.348V24.4H66.583V31.456C66.583 33.304 66.079 34.726 65.071 35.722C64.063 36.718 62.665 37.216 60.877 37.216Z" fill="url(#paint18_linear_3467_1284)"/>
<path d="M229.74 15V1.64398H232.548V15H229.74Z" fill="url(#paint19_linear_3467_1284)"/>
<path d="M224.211 15V13.11L224.031 12.696V9.31199C224.031 8.71198 223.845 8.24399 223.473 7.90799C223.113 7.57199 222.555 7.40399 221.799 7.40399C221.283 7.40399 220.773 7.48798 220.269 7.65598C219.777 7.81199 219.357 8.02799 219.009 8.30399L218.001 6.34198C218.529 5.96999 219.165 5.68198 219.909 5.47798C220.653 5.27399 221.409 5.17199 222.177 5.17199C223.653 5.17199 224.799 5.51999 225.615 6.21599C226.431 6.91199 226.839 7.99799 226.839 9.47399V15H224.211ZM221.259 15.144C220.503 15.144 219.855 15.018 219.315 14.766C218.775 14.502 218.361 14.148 218.073 13.704C217.785 13.26 217.641 12.762 217.641 12.21C217.641 11.634 217.779 11.13 218.055 10.698C218.343 10.266 218.793 9.92999 219.405 9.68999C220.017 9.43799 220.815 9.31199 221.799 9.31199H224.373V10.95H222.105C221.445 10.95 220.989 11.058 220.737 11.274C220.497 11.49 220.377 11.76 220.377 12.084C220.377 12.444 220.515 12.732 220.791 12.948C221.079 13.152 221.469 13.254 221.961 13.254C222.429 13.254 222.849 13.146 223.221 12.93C223.593 12.702 223.863 12.372 224.031 11.94L224.463 13.236C224.259 13.86 223.887 14.334 223.347 14.658C222.807 14.982 222.111 15.144 221.259 15.144Z" fill="url(#paint20_linear_3467_1284)"/>
<path d="M211.351 5.17199C212.119 5.17199 212.803 5.32799 213.403 5.63999C214.015 5.93999 214.495 6.40799 214.843 7.04399C215.191 7.66799 215.365 8.47199 215.365 9.45599V15H212.557V9.88799C212.557 9.10799 212.383 8.53199 212.035 8.15999C211.699 7.78799 211.219 7.60198 210.595 7.60198C210.151 7.60198 209.749 7.69799 209.389 7.88999C209.041 8.06998 208.765 8.35199 208.561 8.73599C208.369 9.11999 208.273 9.61199 208.273 10.212V15H205.465V5.31598H208.147V7.99798L207.643 7.18799C207.991 6.53999 208.489 6.04199 209.137 5.69399C209.785 5.34599 210.523 5.17199 211.351 5.17199Z" fill="url(#paint21_linear_3467_1284)"/>
<path d="M197.918 15.144C196.886 15.144 195.968 14.928 195.164 14.496C194.372 14.064 193.742 13.476 193.274 12.732C192.818 11.976 192.59 11.118 192.59 10.158C192.59 9.18599 192.818 8.32799 193.274 7.58399C193.742 6.82799 194.372 6.23999 195.164 5.81998C195.968 5.38799 196.886 5.17199 197.918 5.17199C198.938 5.17199 199.85 5.38799 200.654 5.81998C201.458 6.23999 202.088 6.82199 202.544 7.56599C203 8.30999 203.228 9.17399 203.228 10.158C203.228 11.118 203 11.976 202.544 12.732C202.088 13.476 201.458 14.064 200.654 14.496C199.85 14.928 198.938 15.144 197.918 15.144ZM197.918 12.84C198.386 12.84 198.806 12.732 199.178 12.516C199.55 12.3 199.844 11.994 200.06 11.598C200.276 11.19 200.384 10.71 200.384 10.158C200.384 9.59399 200.276 9.11399 200.06 8.71799C199.844 8.32198 199.55 8.01599 199.178 7.79999C198.806 7.58399 198.386 7.47599 197.918 7.47599C197.45 7.47599 197.03 7.58399 196.658 7.79999C196.286 8.01599 195.986 8.32198 195.758 8.71799C195.542 9.11399 195.434 9.59399 195.434 10.158C195.434 10.71 195.542 11.19 195.758 11.598C195.986 11.994 196.286 12.3 196.658 12.516C197.03 12.732 197.45 12.84 197.918 12.84Z" fill="url(#paint22_linear_3467_1284)"/>
<path d="M187.536 15V5.31598H190.344V15H187.536ZM188.94 3.96599C188.424 3.96599 188.004 3.81598 187.68 3.51599C187.356 3.21598 187.194 2.84398 187.194 2.39998C187.194 1.95598 187.356 1.58398 187.68 1.28398C188.004 0.983984 188.424 0.833984 188.94 0.833984C189.456 0.833984 189.876 0.977985 190.2 1.26599C190.524 1.54199 190.686 1.90199 190.686 2.34599C190.686 2.81398 190.524 3.20398 190.2 3.51599C189.888 3.81598 189.468 3.96599 188.94 3.96599Z" fill="url(#paint23_linear_3467_1284)"/>
<path d="M183.314 15.144C182.174 15.144 181.286 14.856 180.65 14.28C180.014 13.692 179.696 12.822 179.696 11.67V3.17399H182.504V11.634C182.504 12.042 182.612 12.36 182.828 12.588C183.044 12.804 183.338 12.912 183.71 12.912C184.154 12.912 184.532 12.792 184.844 12.552L185.6 14.532C185.312 14.736 184.964 14.892 184.556 15C184.16 15.096 183.746 15.144 183.314 15.144ZM178.202 7.69199V5.53199H184.916V7.69199H178.202Z" fill="url(#paint24_linear_3467_1284)"/>
<path d="M173.825 15V13.11L173.645 12.696V9.31199C173.645 8.71198 173.459 8.24399 173.087 7.90799C172.727 7.57199 172.169 7.40399 171.413 7.40399C170.897 7.40399 170.387 7.48798 169.883 7.65598C169.391 7.81199 168.971 8.02799 168.623 8.30399L167.615 6.34198C168.143 5.96999 168.779 5.68198 169.523 5.47798C170.267 5.27399 171.023 5.17199 171.791 5.17199C173.267 5.17199 174.413 5.51999 175.229 6.21599C176.045 6.91199 176.453 7.99799 176.453 9.47399V15H173.825ZM170.873 15.144C170.117 15.144 169.469 15.018 168.929 14.766C168.389 14.502 167.975 14.148 167.687 13.704C167.399 13.26 167.255 12.762 167.255 12.21C167.255 11.634 167.393 11.13 167.669 10.698C167.957 10.266 168.407 9.92999 169.019 9.68999C169.631 9.43799 170.429 9.31199 171.413 9.31199H173.987V10.95H171.719C171.059 10.95 170.603 11.058 170.351 11.274C170.111 11.49 169.991 11.76 169.991 12.084C169.991 12.444 170.129 12.732 170.405 12.948C170.693 13.152 171.083 13.254 171.575 13.254C172.043 13.254 172.463 13.146 172.835 12.93C173.207 12.702 173.477 12.372 173.645 11.94L174.077 13.236C173.873 13.86 173.501 14.334 172.961 14.658C172.421 14.982 171.725 15.144 170.873 15.144Z" fill="url(#paint25_linear_3467_1284)"/>
<path d="M160.965 5.17199C161.733 5.17199 162.417 5.32799 163.017 5.63999C163.629 5.93999 164.109 6.40799 164.457 7.04399C164.805 7.66799 164.979 8.47199 164.979 9.45599V15H162.171V9.88799C162.171 9.10799 161.997 8.53199 161.649 8.15999C161.313 7.78799 160.833 7.60198 160.209 7.60198C159.765 7.60198 159.363 7.69799 159.003 7.88999C158.655 8.06998 158.379 8.35199 158.175 8.73599C157.983 9.11999 157.887 9.61199 157.887 10.212V15H155.079V5.31598H157.761V7.99798L157.257 7.18799C157.605 6.53999 158.103 6.04199 158.751 5.69399C159.399 5.34599 160.137 5.17199 160.965 5.17199Z" fill="url(#paint26_linear_3467_1284)"/>
<path d="M147.02 15V5.31598H149.702V8.05199L149.324 7.25999C149.612 6.57599 150.074 6.05999 150.71 5.71199C151.346 5.35199 152.12 5.17199 153.032 5.17199V7.76399C152.912 7.75199 152.804 7.74599 152.708 7.74599C152.612 7.73398 152.51 7.72799 152.402 7.72799C151.634 7.72799 151.01 7.94999 150.53 8.39399C150.062 8.82599 149.828 9.50398 149.828 10.428V15H147.02Z" fill="url(#paint27_linear_3467_1284)"/>
<path d="M140.111 15.144C139.007 15.144 138.035 14.928 137.195 14.496C136.367 14.064 135.725 13.476 135.269 12.732C134.813 11.976 134.585 11.118 134.585 10.158C134.585 9.18599 134.807 8.32799 135.251 7.58399C135.707 6.82799 136.325 6.23999 137.105 5.81998C137.885 5.38799 138.767 5.17199 139.751 5.17199C140.699 5.17199 141.551 5.37599 142.307 5.78399C143.075 6.17999 143.681 6.75599 144.125 7.51199C144.569 8.25599 144.791 9.14999 144.791 10.194C144.791 10.302 144.785 10.428 144.773 10.572C144.761 10.704 144.749 10.83 144.737 10.95H136.871V9.31199H143.261L142.181 9.79799C142.181 9.29399 142.079 8.85598 141.875 8.48398C141.671 8.11199 141.389 7.82399 141.029 7.61999C140.669 7.40399 140.249 7.29599 139.769 7.29599C139.289 7.29599 138.863 7.40399 138.491 7.61999C138.131 7.82399 137.849 8.11799 137.645 8.50199C137.441 8.87399 137.339 9.31799 137.339 9.83399V10.266C137.339 10.794 137.453 11.262 137.681 11.67C137.921 12.066 138.251 12.372 138.671 12.588C139.103 12.792 139.607 12.894 140.183 12.894C140.699 12.894 141.149 12.816 141.533 12.66C141.929 12.504 142.289 12.27 142.613 11.958L144.107 13.578C143.663 14.082 143.105 14.472 142.433 14.748C141.761 15.012 140.987 15.144 140.111 15.144Z" fill="url(#paint28_linear_3467_1284)"/>
<path d="M131.381 15.144C130.241 15.144 129.353 14.856 128.717 14.28C128.081 13.692 127.763 12.822 127.763 11.67V3.17399H130.571V11.634C130.571 12.042 130.679 12.36 130.895 12.588C131.111 12.804 131.405 12.912 131.777 12.912C132.221 12.912 132.599 12.792 132.911 12.552L133.667 14.532C133.379 14.736 133.031 14.892 132.623 15C132.227 15.096 131.813 15.144 131.381 15.144ZM126.269 7.69199V5.53199H132.983V7.69199H126.269Z" fill="url(#paint29_linear_3467_1284)"/>
<path d="M120.502 5.17199C121.27 5.17199 121.954 5.32799 122.554 5.63999C123.166 5.93999 123.646 6.40799 123.994 7.04399C124.342 7.66799 124.516 8.47199 124.516 9.45599V15H121.708V9.88799C121.708 9.10799 121.534 8.53199 121.186 8.15999C120.85 7.78799 120.37 7.60198 119.746 7.60198C119.302 7.60198 118.9 7.69799 118.54 7.88999C118.192 8.06998 117.916 8.35199 117.712 8.73599C117.52 9.11999 117.424 9.61199 117.424 10.212V15H114.616V5.31598H117.298V7.99798L116.794 7.18799C117.142 6.53999 117.64 6.04199 118.288 5.69399C118.936 5.34599 119.674 5.17199 120.502 5.17199Z" fill="url(#paint30_linear_3467_1284)"/>
<path d="M108.548 15V2.39999H111.464V15H108.548Z" fill="url(#paint31_linear_3467_1284)"/>
<path d="M98.6698 15.144C97.5298 15.144 96.6418 14.856 96.0058 14.28C95.3698 13.692 95.0518 12.822 95.0518 11.67V3.17399H97.8598V11.634C97.8598 12.042 97.9678 12.36 98.1838 12.588C98.3998 12.804 98.6938 12.912 99.0658 12.912C99.5098 12.912 99.8878 12.792 100.2 12.552L100.956 14.532C100.668 14.736 100.32 14.892 99.9118 15C99.5158 15.096 99.1018 15.144 98.6698 15.144ZM93.5578 7.69199V5.53199H100.272V7.69199H93.5578Z" fill="url(#paint32_linear_3467_1284)"/>
<path d="M88.0453 15.144C87.2173 15.144 86.4193 15.048 85.6513 14.856C84.8953 14.652 84.2953 14.4 83.8513 14.1L84.7873 12.084C85.2313 12.36 85.7533 12.588 86.3533 12.768C86.9653 12.936 87.5653 13.02 88.1533 13.02C88.8013 13.02 89.2573 12.942 89.5213 12.786C89.7973 12.63 89.9353 12.414 89.9353 12.138C89.9353 11.91 89.8273 11.742 89.6113 11.634C89.4073 11.514 89.1313 11.424 88.7833 11.364C88.4353 11.304 88.0513 11.244 87.6313 11.184C87.2233 11.124 86.8093 11.046 86.3893 10.95C85.9693 10.842 85.5853 10.686 85.2373 10.482C84.8893 10.278 84.6073 10.002 84.3913 9.65399C84.1873 9.30599 84.0853 8.85599 84.0853 8.30399C84.0853 7.69199 84.2593 7.15199 84.6073 6.68399C84.9673 6.21599 85.4833 5.84999 86.1553 5.58599C86.8273 5.30999 87.6313 5.17199 88.5673 5.17199C89.2273 5.17199 89.8993 5.24399 90.5833 5.38799C91.2673 5.53199 91.8373 5.74199 92.2933 6.01799L91.3573 8.01599C90.8893 7.73999 90.4153 7.55399 89.9353 7.45798C89.4673 7.34999 89.0113 7.29599 88.5673 7.29599C87.9433 7.29599 87.4873 7.37998 87.1993 7.54799C86.9113 7.71599 86.7673 7.93198 86.7673 8.19598C86.7673 8.43599 86.8693 8.61599 87.0733 8.73599C87.2893 8.85599 87.5713 8.95199 87.9193 9.02399C88.2673 9.09599 88.6453 9.16199 89.0533 9.22199C89.4733 9.26999 89.8933 9.34799 90.3133 9.45599C90.7333 9.56398 91.1113 9.71999 91.4473 9.92399C91.7953 10.116 92.0773 10.386 92.2933 10.734C92.5093 11.07 92.6173 11.514 92.6173 12.066C92.6173 12.666 92.4373 13.2 92.0773 13.668C91.7173 14.124 91.1953 14.484 90.5113 14.748C89.8393 15.012 89.0173 15.144 88.0453 15.144Z" fill="url(#paint33_linear_3467_1284)"/>
<path d="M77.2404 15.144C76.2084 15.144 75.2904 14.928 74.4864 14.496C73.6944 14.064 73.0644 13.476 72.5964 12.732C72.1404 11.976 71.9124 11.118 71.9124 10.158C71.9124 9.18599 72.1404 8.32799 72.5964 7.58399C73.0644 6.82799 73.6944 6.23999 74.4864 5.81998C75.2904 5.38799 76.2084 5.17199 77.2404 5.17199C78.2604 5.17199 79.1724 5.38799 79.9764 5.81998C80.7804 6.23999 81.4104 6.82199 81.8664 7.56599C82.3224 8.30999 82.5504 9.17399 82.5504 10.158C82.5504 11.118 82.3224 11.976 81.8664 12.732C81.4104 13.476 80.7804 14.064 79.9764 14.496C79.1724 14.928 78.2604 15.144 77.2404 15.144ZM77.2404 12.84C77.7084 12.84 78.1284 12.732 78.5004 12.516C78.8724 12.3 79.1664 11.994 79.3824 11.598C79.5984 11.19 79.7064 10.71 79.7064 10.158C79.7064 9.59399 79.5984 9.11399 79.3824 8.71799C79.1664 8.32198 78.8724 8.01599 78.5004 7.79999C78.1284 7.58399 77.7084 7.47599 77.2404 7.47599C76.7724 7.47599 76.3524 7.58399 75.9804 7.79999C75.6084 8.01599 75.3084 8.32198 75.0804 8.71799C74.8644 9.11399 74.7564 9.59399 74.7564 10.158C74.7564 10.71 74.8644 11.19 75.0804 11.598C75.3084 11.994 75.6084 12.3 75.9804 12.516C76.3524 12.732 76.7724 12.84 77.2404 12.84Z" fill="url(#paint34_linear_3467_1284)"/>
<path d="M55.279 15V2.39999H57.691L63.055 11.292H61.777L67.051 2.39999H69.445L69.481 15H66.745L66.727 6.59399H67.231L63.019 13.668H61.705L57.403 6.59399H58.015V15H55.279Z" fill="url(#paint35_linear_3467_1284)"/>
<path d="M29.547 36V6.55998L32.767 9.77998H23.107V3.79998H36.999V36H29.547Z" fill="url(#paint36_linear_3467_1284)"/>
<path d="M10.705 36L13.141 16.4H16.277L13.869 36H10.705ZM0.344971 31.52V28.468H18.433V31.52H0.344971ZM3.45297 36L5.88897 16.4H9.02497L6.58897 36H3.45297ZM1.29697 23.932V20.88H19.357L19.385 23.932H1.29697Z" fill="url(#paint37_linear_3467_1284)"/>
<defs>
<linearGradient id="paint0_linear_3467_1284" x1="0.344971" y1="32.0303" x2="263.154" y2="32.0303" gradientUnits="userSpaceOnUse">
<stop stop-color="#DF7433"/>
<stop offset="0.31875" stop-color="#DA562B"/>
<stop offset="0.736458" stop-color="#CC103C"/>
<stop offset="1" stop-color="#9F0D43"/>
</linearGradient>
<linearGradient id="paint1_linear_3467_1284" x1="0.344971" y1="32.0303" x2="263.154" y2="32.0303" gradientUnits="userSpaceOnUse">
<stop stop-color="#DF7433"/>
<stop offset="0.31875" stop-color="#DA562B"/>
<stop offset="0.736458" stop-color="#CC103C"/>
<stop offset="1" stop-color="#9F0D43"/>
</linearGradient>
<linearGradient id="paint2_linear_3467_1284" x1="0.344971" y1="32.0303" x2="263.154" y2="32.0303" gradientUnits="userSpaceOnUse">
<stop stop-color="#DF7433"/>
<stop offset="0.31875" stop-color="#DA562B"/>
<stop offset="0.736458" stop-color="#CC103C"/>
<stop offset="1" stop-color="#9F0D43"/>
</linearGradient>
<linearGradient id="paint3_linear_3467_1284" x1="0.344971" y1="32.0303" x2="263.154" y2="32.0303" gradientUnits="userSpaceOnUse">
<stop stop-color="#DF7433"/>
<stop offset="0.31875" stop-color="#DA562B"/>
<stop offset="0.736458" stop-color="#CC103C"/>
<stop offset="1" stop-color="#9F0D43"/>
</linearGradient>
<linearGradient id="paint4_linear_3467_1284" x1="0.344971" y1="32.0303" x2="263.154" y2="32.0303" gradientUnits="userSpaceOnUse">
<stop stop-color="#DF7433"/>
<stop offset="0.31875" stop-color="#DA562B"/>
<stop offset="0.736458" stop-color="#CC103C"/>
<stop offset="1" stop-color="#9F0D43"/>
</linearGradient>
<linearGradient id="paint5_linear_3467_1284" x1="0.344971" y1="32.0303" x2="263.154" y2="32.0303" gradientUnits="userSpaceOnUse">
<stop stop-color="#DF7433"/>
<stop offset="0.31875" stop-color="#DA562B"/>
<stop offset="0.736458" stop-color="#CC103C"/>
<stop offset="1" stop-color="#9F0D43"/>
</linearGradient>
<linearGradient id="paint6_linear_3467_1284" x1="0.344971" y1="32.0303" x2="263.154" y2="32.0303" gradientUnits="userSpaceOnUse">
<stop stop-color="#DF7433"/>
<stop offset="0.31875" stop-color="#DA562B"/>
<stop offset="0.736458" stop-color="#CC103C"/>
<stop offset="1" stop-color="#9F0D43"/>
</linearGradient>
<linearGradient id="paint7_linear_3467_1284" x1="0.344971" y1="32.0303" x2="263.154" y2="32.0303" gradientUnits="userSpaceOnUse">
<stop stop-color="#DF7433"/>
<stop offset="0.31875" stop-color="#DA562B"/>
<stop offset="0.736458" stop-color="#CC103C"/>
<stop offset="1" stop-color="#9F0D43"/>
</linearGradient>
<linearGradient id="paint8_linear_3467_1284" x1="0.344971" y1="32.0303" x2="263.154" y2="32.0303" gradientUnits="userSpaceOnUse">
<stop stop-color="#DF7433"/>
<stop offset="0.31875" stop-color="#DA562B"/>
<stop offset="0.736458" stop-color="#CC103C"/>
<stop offset="1" stop-color="#9F0D43"/>
</linearGradient>
<linearGradient id="paint9_linear_3467_1284" x1="0.344971" y1="32.0303" x2="263.154" y2="32.0303" gradientUnits="userSpaceOnUse">
<stop stop-color="#DF7433"/>
<stop offset="0.31875" stop-color="#DA562B"/>
<stop offset="0.736458" stop-color="#CC103C"/>
<stop offset="1" stop-color="#9F0D43"/>
</linearGradient>
<linearGradient id="paint10_linear_3467_1284" x1="0.344971" y1="32.0303" x2="263.154" y2="32.0303" gradientUnits="userSpaceOnUse">
<stop stop-color="#DF7433"/>
<stop offset="0.31875" stop-color="#DA562B"/>
<stop offset="0.736458" stop-color="#CC103C"/>
<stop offset="1" stop-color="#9F0D43"/>
</linearGradient>
<linearGradient id="paint11_linear_3467_1284" x1="0.344971" y1="32.0303" x2="263.154" y2="32.0303" gradientUnits="userSpaceOnUse">
<stop stop-color="#DF7433"/>
<stop offset="0.31875" stop-color="#DA562B"/>
<stop offset="0.736458" stop-color="#CC103C"/>
<stop offset="1" stop-color="#9F0D43"/>
</linearGradient>
<linearGradient id="paint12_linear_3467_1284" x1="0.344971" y1="32.0303" x2="263.154" y2="32.0303" gradientUnits="userSpaceOnUse">
<stop stop-color="#DF7433"/>
<stop offset="0.31875" stop-color="#DA562B"/>
<stop offset="0.736458" stop-color="#CC103C"/>
<stop offset="1" stop-color="#9F0D43"/>
</linearGradient>
<linearGradient id="paint13_linear_3467_1284" x1="0.344971" y1="32.0303" x2="263.154" y2="32.0303" gradientUnits="userSpaceOnUse">
<stop stop-color="#DF7433"/>
<stop offset="0.31875" stop-color="#DA562B"/>
<stop offset="0.736458" stop-color="#CC103C"/>
<stop offset="1" stop-color="#9F0D43"/>
</linearGradient>
<linearGradient id="paint14_linear_3467_1284" x1="0.344971" y1="32.0303" x2="263.154" y2="32.0303" gradientUnits="userSpaceOnUse">
<stop stop-color="#DF7433"/>
<stop offset="0.31875" stop-color="#DA562B"/>
<stop offset="0.736458" stop-color="#CC103C"/>
<stop offset="1" stop-color="#9F0D43"/>
</linearGradient>
<linearGradient id="paint15_linear_3467_1284" x1="0.344971" y1="32.0303" x2="263.154" y2="32.0303" gradientUnits="userSpaceOnUse">
<stop stop-color="#DF7433"/>
<stop offset="0.31875" stop-color="#DA562B"/>
<stop offset="0.736458" stop-color="#CC103C"/>
<stop offset="1" stop-color="#9F0D43"/>
</linearGradient>
<linearGradient id="paint16_linear_3467_1284" x1="0.344971" y1="32.0303" x2="263.154" y2="32.0303" gradientUnits="userSpaceOnUse">
<stop stop-color="#DF7433"/>
<stop offset="0.31875" stop-color="#DA562B"/>
<stop offset="0.736458" stop-color="#CC103C"/>
<stop offset="1" stop-color="#9F0D43"/>
</linearGradient>
<linearGradient id="paint17_linear_3467_1284" x1="0.344971" y1="32.0303" x2="263.154" y2="32.0303" gradientUnits="userSpaceOnUse">
<stop stop-color="#DF7433"/>
<stop offset="0.31875" stop-color="#DA562B"/>
<stop offset="0.736458" stop-color="#CC103C"/>
<stop offset="1" stop-color="#9F0D43"/>
</linearGradient>
<linearGradient id="paint18_linear_3467_1284" x1="0.344971" y1="32.0303" x2="263.154" y2="32.0303" gradientUnits="userSpaceOnUse">
<stop stop-color="#DF7433"/>
<stop offset="0.31875" stop-color="#DA562B"/>
<stop offset="0.736458" stop-color="#CC103C"/>
<stop offset="1" stop-color="#9F0D43"/>
</linearGradient>
<linearGradient id="paint19_linear_3467_1284" x1="0.344971" y1="32.0303" x2="263.154" y2="32.0303" gradientUnits="userSpaceOnUse">
<stop stop-color="#DF7433"/>
<stop offset="0.31875" stop-color="#DA562B"/>
<stop offset="0.736458" stop-color="#CC103C"/>
<stop offset="1" stop-color="#9F0D43"/>
</linearGradient>
<linearGradient id="paint20_linear_3467_1284" x1="0.344971" y1="32.0303" x2="263.154" y2="32.0303" gradientUnits="userSpaceOnUse">
<stop stop-color="#DF7433"/>
<stop offset="0.31875" stop-color="#DA562B"/>
<stop offset="0.736458" stop-color="#CC103C"/>
<stop offset="1" stop-color="#9F0D43"/>
</linearGradient>
<linearGradient id="paint21_linear_3467_1284" x1="0.344971" y1="32.0303" x2="263.154" y2="32.0303" gradientUnits="userSpaceOnUse">
<stop stop-color="#DF7433"/>
<stop offset="0.31875" stop-color="#DA562B"/>
<stop offset="0.736458" stop-color="#CC103C"/>
<stop offset="1" stop-color="#9F0D43"/>
</linearGradient>
<linearGradient id="paint22_linear_3467_1284" x1="0.344971" y1="32.0303" x2="263.154" y2="32.0303" gradientUnits="userSpaceOnUse">
<stop stop-color="#DF7433"/>
<stop offset="0.31875" stop-color="#DA562B"/>
<stop offset="0.736458" stop-color="#CC103C"/>
<stop offset="1" stop-color="#9F0D43"/>
</linearGradient>
<linearGradient id="paint23_linear_3467_1284" x1="0.344971" y1="32.0303" x2="263.154" y2="32.0303" gradientUnits="userSpaceOnUse">
<stop stop-color="#DF7433"/>
<stop offset="0.31875" stop-color="#DA562B"/>
<stop offset="0.736458" stop-color="#CC103C"/>
<stop offset="1" stop-color="#9F0D43"/>
</linearGradient>
<linearGradient id="paint24_linear_3467_1284" x1="0.344971" y1="32.0303" x2="263.154" y2="32.0303" gradientUnits="userSpaceOnUse">
<stop stop-color="#DF7433"/>
<stop offset="0.31875" stop-color="#DA562B"/>
<stop offset="0.736458" stop-color="#CC103C"/>
<stop offset="1" stop-color="#9F0D43"/>
</linearGradient>
<linearGradient id="paint25_linear_3467_1284" x1="0.344971" y1="32.0303" x2="263.154" y2="32.0303" gradientUnits="userSpaceOnUse">
<stop stop-color="#DF7433"/>
<stop offset="0.31875" stop-color="#DA562B"/>
<stop offset="0.736458" stop-color="#CC103C"/>
<stop offset="1" stop-color="#9F0D43"/>
</linearGradient>
<linearGradient id="paint26_linear_3467_1284" x1="0.344971" y1="32.0303" x2="263.154" y2="32.0303" gradientUnits="userSpaceOnUse">
<stop stop-color="#DF7433"/>
<stop offset="0.31875" stop-color="#DA562B"/>
<stop offset="0.736458" stop-color="#CC103C"/>
<stop offset="1" stop-color="#9F0D43"/>
</linearGradient>
<linearGradient id="paint27_linear_3467_1284" x1="0.344971" y1="32.0303" x2="263.154" y2="32.0303" gradientUnits="userSpaceOnUse">
<stop stop-color="#DF7433"/>
<stop offset="0.31875" stop-color="#DA562B"/>
<stop offset="0.736458" stop-color="#CC103C"/>
<stop offset="1" stop-color="#9F0D43"/>
</linearGradient>
<linearGradient id="paint28_linear_3467_1284" x1="0.344971" y1="32.0303" x2="263.154" y2="32.0303" gradientUnits="userSpaceOnUse">
<stop stop-color="#DF7433"/>
<stop offset="0.31875" stop-color="#DA562B"/>
<stop offset="0.736458" stop-color="#CC103C"/>
<stop offset="1" stop-color="#9F0D43"/>
</linearGradient>
<linearGradient id="paint29_linear_3467_1284" x1="0.344971" y1="32.0303" x2="263.154" y2="32.0303" gradientUnits="userSpaceOnUse">
<stop stop-color="#DF7433"/>
<stop offset="0.31875" stop-color="#DA562B"/>
<stop offset="0.736458" stop-color="#CC103C"/>
<stop offset="1" stop-color="#9F0D43"/>
</linearGradient>
<linearGradient id="paint30_linear_3467_1284" x1="0.344971" y1="32.0303" x2="263.154" y2="32.0303" gradientUnits="userSpaceOnUse">
<stop stop-color="#DF7433"/>
<stop offset="0.31875" stop-color="#DA562B"/>
<stop offset="0.736458" stop-color="#CC103C"/>
<stop offset="1" stop-color="#9F0D43"/>
</linearGradient>
<linearGradient id="paint31_linear_3467_1284" x1="0.344971" y1="32.0303" x2="263.154" y2="32.0303" gradientUnits="userSpaceOnUse">
<stop stop-color="#DF7433"/>
<stop offset="0.31875" stop-color="#DA562B"/>
<stop offset="0.736458" stop-color="#CC103C"/>
<stop offset="1" stop-color="#9F0D43"/>
</linearGradient>
<linearGradient id="paint32_linear_3467_1284" x1="0.344971" y1="32.0303" x2="263.154" y2="32.0303" gradientUnits="userSpaceOnUse">
<stop stop-color="#DF7433"/>
<stop offset="0.31875" stop-color="#DA562B"/>
<stop offset="0.736458" stop-color="#CC103C"/>
<stop offset="1" stop-color="#9F0D43"/>
</linearGradient>
<linearGradient id="paint33_linear_3467_1284" x1="0.344971" y1="32.0303" x2="263.154" y2="32.0303" gradientUnits="userSpaceOnUse">
<stop stop-color="#DF7433"/>
<stop offset="0.31875" stop-color="#DA562B"/>
<stop offset="0.736458" stop-color="#CC103C"/>
<stop offset="1" stop-color="#9F0D43"/>
</linearGradient>
<linearGradient id="paint34_linear_3467_1284" x1="0.344971" y1="32.0303" x2="263.154" y2="32.0303" gradientUnits="userSpaceOnUse">
<stop stop-color="#DF7433"/>
<stop offset="0.31875" stop-color="#DA562B"/>
<stop offset="0.736458" stop-color="#CC103C"/>
<stop offset="1" stop-color="#9F0D43"/>
</linearGradient>
<linearGradient id="paint35_linear_3467_1284" x1="0.344971" y1="32.0303" x2="263.154" y2="32.0303" gradientUnits="userSpaceOnUse">
<stop stop-color="#DF7433"/>
<stop offset="0.31875" stop-color="#DA562B"/>
<stop offset="0.736458" stop-color="#CC103C"/>
<stop offset="1" stop-color="#9F0D43"/>
</linearGradient>
<linearGradient id="paint36_linear_3467_1284" x1="0.344971" y1="32.0303" x2="263.154" y2="32.0303" gradientUnits="userSpaceOnUse">
<stop stop-color="#DF7433"/>
<stop offset="0.31875" stop-color="#DA562B"/>
<stop offset="0.736458" stop-color="#CC103C"/>
<stop offset="1" stop-color="#9F0D43"/>
</linearGradient>
<linearGradient id="paint37_linear_3467_1284" x1="0.344971" y1="32.0303" x2="263.154" y2="32.0303" gradientUnits="userSpaceOnUse">
<stop stop-color="#DF7433"/>
<stop offset="0.31875" stop-color="#DA562B"/>
<stop offset="0.736458" stop-color="#CC103C"/>
<stop offset="1" stop-color="#9F0D43"/>
</linearGradient>
</defs>
</svg>
